<svg id="ebrdEq3xo021" xmlns="http://www.w3.org/2000/svg" xmlns:xlink="http://www.w3.org/1999/xlink" viewBox="0 0 1571 321.8" shape-rendering="geometricPrecision" text-rendering="geometricPrecision">
<style><![CDATA[
#ebrdEq3xo024_to {animation: ebrdEq3xo024_to__to 2800ms linear infinite alternate forwards}@keyframes ebrdEq3xo024_to__to { 0% {transform: translate(231.487408px,165.364876px);animation-timing-function: cubic-bezier(0.42,0,0.58,1)} 35.714286% {transform: translate(231.487408px,271.119079px);animation-timing-function: cubic-bezier(0.42,0,0.58,1)} 71.428571% {transform: translate(231.487408px,165.364876px)} 100% {transform: translate(231.487408px,165.364876px)}} #ebrdEq3xo026_to {animation: ebrdEq3xo026_to__to 2800ms linear infinite alternate forwards}@keyframes ebrdEq3xo026_to__to { 0% {transform: translate(786.487488px,161.454193px)} 14.285714% {transform: translate(786.487488px,161.454193px);animation-timing-function: cubic-bezier(0.42,0,0.58,1)} 50% {transform: translate(786.487488px,276.822412px);animation-timing-function: cubic-bezier(0.42,0,0.58,1)} 85.714286% {transform: translate(786.487488px,161.454193px)} 100% {transform: translate(786.487488px,161.454193px)}} #ebrdEq3xo027_to {animation: ebrdEq3xo027_to__to 2800ms linear infinite alternate forwards}@keyframes ebrdEq3xo027_to__to { 0% {transform: translate(1341.587341px,169.354195px)} 28.571429% {transform: translate(1341.587341px,169.354195px);animation-timing-function: cubic-bezier(0.42,0,0.58,1)} 64.285714% {transform: translate(1341.587341px,277.031201px);animation-timing-function: cubic-bezier(0.42,0,0.58,1)} 100% {transform: translate(1341.587341px,169.354195px)}}
]]></style>
<g transform="matrix(.808396 0 0 0.808396 149.666304-11.208963)"><g><g id="ebrdEq3xo024_to" transform="translate(231.487408,165.364876)"><path d="M443.9,82.5c-2.4,7.8-8,13.3-13.6,18.8-60.1,60-120.1,120-180.1,180-7.4,7.4-15.8,10.8-25.8,7.4-3.8-1.3-7.5-3.8-10.3-6.6-62.4-62-124.7-124.3-186.9-186.6C16.4,84.7,16.4,71.1,27,60.3c4.7-4.8,9.4-9.8,14.6-14.1c8.6-7.4,21-7.1,29.7.2c1.5,1.2,2.9,2.6,4.2,4C126.2,101,177,151.8,227.7,202.5c1.2,1.2,2.1,2.5,5,4.7.8-1.5,1.3-3.2,2.4-4.3c51.2-51.3,102.4-102.5,153.6-153.7c9.6-9.5,22.7-11.5,31.7-3.6c9.1,8,19.1,15.5,23.4,27.7.1,3.1.1,6.2.1,9.2Z" transform="translate(-231.487408,-165.364876)" fill="#ffa800"/></g></g><g><g id="ebrdEq3xo026_to" transform="translate(786.487488,161.454193)"><path d="M998.9,78.6c-2.4,7.8-8,13.3-13.6,18.8-60.1,60-120.1,120-180.1,180-7.4,7.4-15.8,10.8-25.8,7.4-3.8-1.3-7.5-3.8-10.3-6.6C706.7,216,644.5,153.8,582.2,91.5c-10.8-10.8-10.8-24.4-.2-35.2c4.7-4.8,9.4-9.8,14.6-14.1c8.6-7.4,21-7.1,29.7.2c1.5,1.2,2.9,2.6,4.2,4C681.3,97.1,732,147.8,782.8,198.6c1.2,1.2,2.1,2.5,5,4.7.8-1.5,1.3-3.2,2.4-4.3C841.4,147.7,892.6,96.5,943.8,45.3c9.6-9.5,22.7-11.5,31.7-3.6c9.1,8,19.1,15.5,23.4,27.7c0,3.1,0,6.1,0,9.2Z" transform="translate(-786.487488,-161.454193)" fill="#ffa800"/></g></g><g id="ebrdEq3xo027_to" transform="translate(1341.587341,169.354195)"><g transform="translate(-1341.587341,-169.354195)"><path d="M1554,86.5c-2.4,7.8-8,13.3-13.6,18.8-60.1,60-120.1,120-180.1,180-7.4,7.4-15.8,10.8-25.8,7.4-3.8-1.3-7.5-3.8-10.3-6.6-62.4-62.2-124.6-124.4-186.9-186.7-10.8-10.8-10.8-24.4-.2-35.2c4.7-4.8,9.4-9.8,14.6-14.1c8.6-7.4,21-7.1,29.7.2c1.5,1.2,2.9,2.6,4.2,4c50.7,50.7,101.5,101.4,152.2,152.2c1.2,1.2,2.1,2.5,5,4.7.8-1.5,1.3-3.2,2.4-4.3c51.2-51.3,102.4-102.5,153.6-153.7c9.6-9.5,22.7-11.5,31.7-3.6c9.1,8,19.1,15.5,23.4,27.7.1,3.1.1,6.1.1,9.2Z" fill="#ffa800"/></g></g></g></svg>
